<svg xmlns="http://www.w3.org/2000/svg" viewBox="0 0 32 20"><defs><style>.cls-1{fill:#fffdfd;}</style></defs><title>Full Screen Button</title><g id="Warstwa_2" data-name="Warstwa 2"><g id="Warstwa_1-2" data-name="Warstwa 1"><path class="cls-1" d="M24,4h3a1,1,0,0,1,1,1V8h4V1a1,1,0,0,0-1-1H24Z"/><path class="cls-1" d="M4,8V5A1,1,0,0,1,5,4H7.5V0H1A1,1,0,0,0,0,1V8Z"/><path class="cls-1" d="M7.5,16H5a1,1,0,0,1-1-1V12H0v7a1,1,0,0,0,1,1H7.5Z"/><path class="cls-1" d="M28,12v3a1,1,0,0,1-1,1H24v4h7a1,1,0,0,0,1-1V12Z"/></g></g></svg>