<?xml version="1.0" encoding="utf-8"?>
<!-- Generator: Adobe Illustrator 23.0.3, SVG Export Plug-In . SVG Version: 6.00 Build 0)  -->
<svg version="1.1" id="Warstwa_1" xmlns="http://www.w3.org/2000/svg" xmlns:xlink="http://www.w3.org/1999/xlink" x="0px" y="0px"
	 viewBox="0 0 32 32" style="enable-background:new 0 0 32 32;" xml:space="preserve">
<style type="text/css">
	.st0{fill:#FFFFFF;}
</style>
<g>
	<path class="st0" d="M24,10l3,0c0.6,0,1,0.4,1,1l0,3l4,0l0-4l0-3c0-0.6-0.4-1-1-1l-3,0l-4,0L24,10z"/>
	<path class="st0" d="M4,14l0-3c0-0.6,0.4-1,1-1l2.5,0l0-4L4,6L1,6C0.4,6,0,6.4,0,7l0,3l0,4L4,14z"/>
	<path class="st0" d="M7.5,22L5,22c-0.6,0-1-0.4-1-1l0-3l-4,0l0,4l0,3c0,0.6,0.4,1,1,1l3,0l3.5,0L7.5,22z"/>
	<path class="st0" d="M28,18l0,3c0,0.6-0.4,1-1,1l-3,0l0,4l4,0l3,0c0.6,0,1-0.4,1-1l0-3l0-4L28,18z"/>
</g>
</svg>
