<svg xmlns="http://www.w3.org/2000/svg" viewBox="0 0 31.5 20"><defs><style>.cls-1{fill:#fffdfd;}</style></defs><title>Minimalize Button</title><g id="Warstwa_2" data-name="Warstwa 2"><g id="Warstwa_1-2" data-name="Warstwa 1"><path class="cls-1" d="M28,20V17a1,1,0,0,1,1-1h2.5V12H25a1,1,0,0,0-1,1v7Z"/><path class="cls-1" d="M0,16H3a1,1,0,0,1,1,1v3H8V13a1,1,0,0,0-1-1H0Z"/><path class="cls-1" d="M31.5,4H29a1,1,0,0,1-1-1V0H24V7a1,1,0,0,0,1,1h6.5Z"/><path class="cls-1" d="M4,0V3A1,1,0,0,1,3,4H0V8H7A1,1,0,0,0,8,7V0Z"/></g></g></svg>