<svg xmlns="http://www.w3.org/2000/svg" viewBox="0 0 24 24"><defs><style>.cls-1{fill:#fffdfd;}</style></defs><title>Resolution Button</title><g id="Warstwa_2" data-name="Warstwa 2"><g id="Warstwa_1-2" data-name="Warstwa 1"><path class="cls-1" d="M12,2A10,10,0,1,0,22,12,10,10,0,0,0,12,2Zm0,16a6,6,0,1,1,6-6A6,6,0,0,1,12,18Z"/><path class="cls-1" d="M10,0h4a1,1,0,0,1,1,1V3a0,0,0,0,1,0,0H9A0,0,0,0,1,9,3V1A1,1,0,0,1,10,0Z"/><path class="cls-1" d="M10,21h4a1,1,0,0,1,1,1v2a0,0,0,0,1,0,0H9a0,0,0,0,1,0,0V22A1,1,0,0,1,10,21Z" transform="translate(24 45) rotate(180)"/><path class="cls-1" d="M20.5,10.5h4a1,1,0,0,1,1,1v2a0,0,0,0,1,0,0h-6a0,0,0,0,1,0,0v-2A1,1,0,0,1,20.5,10.5Z" transform="translate(34.5 -10.5) rotate(90)"/><path class="cls-1" d="M-.5,10.5h4a1,1,0,0,1,1,1v2a0,0,0,0,1,0,0h-6a0,0,0,0,1,0,0v-2A1,1,0,0,1-.5,10.5Z" transform="translate(-10.5 13.5) rotate(-90)"/><path class="cls-1" d="M17.42,3.08h4a1,1,0,0,1,1,1v2a0,0,0,0,1,0,0h-6a0,0,0,0,1,0,0v-2a1,1,0,0,1,1-1Z" transform="translate(8.92 -12.4) rotate(45)"/><path class="cls-1" d="M2.58,17.92h4a1,1,0,0,1,1,1v2a0,0,0,0,1,0,0h-6a0,0,0,0,1,0,0v-2A1,1,0,0,1,2.58,17.92Z" transform="translate(-5.92 36.4) rotate(-135)"/><path class="cls-1" d="M17.42,17.92h4a1,1,0,0,1,1,1v2a0,0,0,0,1,0,0h-6a0,0,0,0,1,0,0v-2A1,1,0,0,1,17.42,17.92Z" transform="translate(46.9 19.42) rotate(135)"/><path class="cls-1" d="M2.58,3.08h4a1,1,0,0,1,1,1v2a0,0,0,0,1,0,0h-6a0,0,0,0,1,0,0v-2A1,1,0,0,1,2.58,3.08Z" transform="translate(-1.9 4.58) rotate(-45)"/></g></g></svg>