<?xml version="1.0" encoding="utf-8"?>
<!-- Generator: Adobe Illustrator 23.0.3, SVG Export Plug-In . SVG Version: 6.00 Build 0)  -->
<svg version="1.1" id="Warstwa_1" xmlns="http://www.w3.org/2000/svg" xmlns:xlink="http://www.w3.org/1999/xlink" x="0px" y="0px"
	 viewBox="0 0 32 32" style="enable-background:new 0 0 32 32;" xml:space="preserve">
<style type="text/css">
	.st0{fill:#FFFFFF;}
</style>
<g>
	<path class="st0" d="M11.2,0L8,0C7.1,0,6.4,0.7,6.4,1.6l0,28.8C6.4,31.3,7.1,32,8,32l3.2,0c0.9,0,1.6-0.7,1.6-1.6l0-28.8
		C12.8,0.7,12.1,0,11.2,0z"/>
	<path class="st0" d="M24,0l-3.2,0c-0.9,0-1.6,0.7-1.6,1.6l0,28.8c0,0.9,0.7,1.6,1.6,1.6l3.2,0c0.9,0,1.6-0.7,1.6-1.6l0-28.8
		C25.6,0.7,24.9,0,24,0z"/>
</g>
</svg>
