<svg id="Settings" xmlns="http://www.w3.org/2000/svg" viewBox="0 0 64 64"><defs><style>.cls-1{fill:#fff;}</style></defs><title>settingsButton</title><path class="cls-1" d="M32,21A11,11,0,1,1,21,32,11,11,0,0,1,32,21m0-7A18,18,0,1,0,50,32,18,18,0,0,0,32,14Z"/><polygon class="cls-1" points="35.75 10 28.25 10 27 18 37 18 35.75 10 35.75 10"/><polygon class="cls-1" points="37 46 27 46 28.25 54 35.75 54 37 46 37 46"/><polygon class="cls-1" points="46 27 46 37 54 35.75 54 28.25 46 27 46 27"/><polygon class="cls-1" points="18 27 10 28.25 10 35.75 18 37 18 27 18 27"/><polygon class="cls-1" points="44.91 13.79 38.36 18.57 45.44 25.64 50.21 19.09 44.91 13.79 44.91 13.79"/><polygon class="cls-1" points="18.57 38.36 13.79 44.91 19.09 50.21 25.64 45.44 18.57 38.36 18.57 38.36"/><polygon class="cls-1" points="45.44 38.36 38.36 45.44 44.91 50.21 50.21 44.91 45.44 38.36 45.44 38.36"/><polygon class="cls-1" points="19.09 13.79 13.79 19.09 18.57 25.64 25.64 18.57 19.09 13.79 19.09 13.79"/></svg>